<?xml version="1.0" encoding="utf-8"?>
<!-- Generator: Adobe Illustrator 18.1.1, SVG Export Plug-In . SVG Version: 6.00 Build 0)  -->
<svg version="1.1" id="Layer_1" xmlns="http://www.w3.org/2000/svg" xmlns:xlink="http://www.w3.org/1999/xlink" x="0px" y="0px"
	 viewBox="0 0 410 475" enable-background="new 0 0 410 475" xml:space="preserve">
<polygon id="XMLID_1699_" fill="#E3E3E3" stroke="#333333" stroke-miterlimit="10" points="396.5,349.1 204.5,460.7 12.5,349.1 
	12.5,125.7 204.5,14 396.5,125.7 "/>
<polygon id="XMLID_1698_" fill="none" stroke="#72757A" stroke-width="15" stroke-miterlimit="10" points="396.2,349.1 204.4,460.7 
	12.7,349 12.8,125.6 204.6,14 396.3,125.7 "/>
<g id="XMLID_1696_">
	<g id="XMLID_1284_">
		<path id="XMLID_222_" fill="#72757A" d="M204.2,114.3c-0.1,0-0.3,0-0.4,0c-1.6,0-3.1,1.4-3,3c0.1,1.6,1.3,3,3,3c0.1,0,0.3,0,0.4,0
			c1.6,0,3.1-1.4,3-3C207.1,115.6,205.9,114.3,204.2,114.3L204.2,114.3z"/>
	</g>
</g>
<g id="XMLID_1692_">
	<g id="XMLID_347_">
		<path id="XMLID_212_" fill="#72757A" d="M203.8,120.3c0.1,0,0.3,0,0.4,0c1.6,0,3.1-1.4,3-3c-0.1-1.6-1.3-3-3-3c-0.1,0-0.3,0-0.4,0
			c-1.6,0-3.1,1.4-3,3C200.9,118.9,202.1,120.3,203.8,120.3L203.8,120.3z"/>
	</g>
</g>
<g id="XMLID_1601_">
	<g id="XMLID_1697_">
		<g id="XMLID_338_">
			<path id="XMLID_202_" fill="#72757A" d="M204.3,120.3c50.2,0.4,97.8,23.6,129.9,62c2.5,3,6.7-1.3,4.2-4.2
				c-33.1-39.6-82.5-63.4-134.1-63.7C200.4,114.3,200.4,120.3,204.3,120.3L204.3,120.3z"/>
		</g>
	</g>
	<g id="XMLID_1693_">
		<g id="XMLID_332_">
			<path id="XMLID_193_" fill="#72757A" d="M74.1,182.7c32.2-38.4,79.9-62.1,130.2-62.5c3.9,0,3.9-6,0-6
				c-51.8,0.4-101.3,24.6-134.4,64.2C67.4,181.4,71.6,185.7,74.1,182.7L74.1,182.7z"/>
		</g>
	</g>
	<g id="XMLID_1690_">
		<g id="XMLID_258_">
			<path id="XMLID_183_" fill="#72757A" d="M72,177.6c-6.4,0-12.8,0-19.1,0c-1.6,0-3,1.4-3,3c0,3.8,0,7.7,0,11.5c1-1,2-2,3-3
				c-5.4,0-10.8,0-16.3,0c-1.6,0-3,1.4-3,3c0,3.8,0,7.7,0,11.5c1-1,2-2,3-3c-9.5,0-19,0-28.5,0c-1.6,0-3,1.4-3,3
				c0,38,0,76.1,0,114.1c0,5.3,0,10.7,0,16c0,1.6,1.4,3,3,3c12.9-0.1,25.7-0.2,38.6-0.3c30.8-0.3,61.6-0.5,92.4-0.7
				c37.4-0.2,74.8-0.4,112.1-0.5c32.8-0.1,65.5-0.1,98.3,0.1c11,0.1,22,0.2,33,0.4c3.5,0.1,7,0.2,10.5,0.3c1.2,0.1,2.4,0.1,3.6,0.2
				c0.4,0,0.8,0.1,1.2,0.1c0.9,0.1,0.8-0.1,0.5,0c0.1,0,0.6,0.2,0.6,0.1c-0.3,0.5-1.3-4.4-1-4.7c1.7,0.7,3.4,1.4,5.1,2.1
				c0-38,0-76.1,0-114.1c0-5.3,0-10.7,0-16c0-1.6-1.4-3-3-3c-9.5,0-19,0-28.5,0c1,1,2,2,3,3c0-3.8,0-7.7,0-11.5c0-1.6-1.4-3-3-3
				c-5.7,0-11.5,0-17.2,0c1,1,2,2,3,3c0-3.8,0-7.7,0-11.5c0-1.6-1.4-3-3-3c-6.1,0-12.1,0-18.2,0c-3.9,0-3.9,6,0,6
				c6.1,0,12.1,0,18.2,0c-1-1-2-2-3-3c0,3.8,0,7.7,0,11.5c0,1.6,1.4,3,3,3c5.7,0,11.5,0,17.2,0c-1-1-2-2-3-3c0,3.8,0,7.7,0,11.5
				c0,1.6,1.4,3,3,3c9.5,0,19,0,28.5,0c-1-1-2-2-3-3c0,38,0,76.1,0,114.1c0,5.3,0,10.7,0,16c0,2.7,3.2,3.8,5.1,2.1
				c2.5-2.2,0-4.8-2.3-5.4c-2.1-0.5-4.4-0.4-6.6-0.5c-8.6-0.4-17.3-0.5-25.9-0.6c-30.8-0.4-61.6-0.4-92.4-0.3
				c-38.4,0.1-76.9,0.2-115.3,0.5c-33.7,0.2-67.4,0.4-101.1,0.7c-11.3,0.1-22.5,0.2-33.8,0.3c-3.5,0-7,0.1-10.4,0.1
				c-1.6,0-3.9-0.4-5.5,0c-0.2,0.1-0.5,0-0.7,0c1,1,2,2,3,3c0-38,0-76.1,0-114.1c0-5.3,0-10.7,0-16c-1,1-2,2-3,3c9.5,0,19,0,28.5,0
				c1.6,0,3-1.4,3-3c0-3.8,0-7.7,0-11.5c-1,1-2,2-3,3c5.4,0,10.8,0,16.3,0c1.6,0,3-1.4,3-3c0-3.8,0-7.7,0-11.5c-1,1-2,2-3,3
				c6.4,0,12.8,0,19.1,0C75.8,183.6,75.8,177.6,72,177.6L72,177.6z"/>
		</g>
	</g>
</g>
<g id="XMLID_1682_">
	<path id="XMLID_255_" fill="#E3E3E3" d="M204,288.8"/>
	<g id="XMLID_246_">
		<path id="XMLID_173_" fill="#72757A" d="M204,291.8c3.9,0,3.9-6,0-6C200.1,285.8,200.1,291.8,204,291.8L204,291.8z"/>
	</g>
</g>
<g id="XMLID_1681_">
	<path id="XMLID_244_" fill="#E3E3E3" d="M204,288.8"/>
	<g id="XMLID_239_">
		<path id="XMLID_164_" fill="#72757A" d="M204,291.8c3.9,0,3.9-6,0-6C200.1,285.8,200.1,291.8,204,291.8L204,291.8z"/>
	</g>
</g>
<g id="XMLID_1680_">
	<path id="XMLID_235_" fill="#E3E3E3" d="M204,288.8"/>
	<g id="XMLID_226_">
		<path id="XMLID_155_" fill="#72757A" d="M204,291.8c3.9,0,3.9-6,0-6C200.1,285.8,200.1,291.8,204,291.8L204,291.8z"/>
	</g>
</g>
<g id="XMLID_1679_">
	<path id="XMLID_224_" fill="#E3E3E3" d="M204,288.8"/>
	<g id="XMLID_215_">
		<path id="XMLID_147_" fill="#72757A" d="M204,291.8c3.9,0,3.9-6,0-6C200.1,285.8,200.1,291.8,204,291.8L204,291.8z"/>
	</g>
</g>
<g id="XMLID_1678_">
	<path id="XMLID_213_" fill="#E3E3E3" d="M204,288.8"/>
	<g id="XMLID_207_">
		<path id="XMLID_139_" fill="#72757A" d="M204,291.8c3.9,0,3.9-6,0-6C200.1,285.8,200.1,291.8,204,291.8L204,291.8z"/>
	</g>
</g>
<g id="XMLID_1677_">
	<path id="XMLID_204_" fill="#E3E3E3" d="M204,186.4"/>
	<g id="XMLID_197_">
		<path id="XMLID_131_" fill="#72757A" d="M204,189.4c3.9,0,3.9-6,0-6C200.1,183.4,200.1,189.4,204,189.4L204,189.4z"/>
	</g>
</g>
<g id="XMLID_1676_">
	<path id="XMLID_194_" fill="#E3E3E3" d="M204,288.8"/>
	<g id="XMLID_187_">
		<path id="XMLID_124_" fill="#72757A" d="M204,291.8c3.9,0,3.9-6,0-6C200.1,285.8,200.1,291.8,204,291.8L204,291.8z"/>
	</g>
</g>
<g id="XMLID_1675_">
	<path id="XMLID_185_" fill="#E3E3E3" d="M204,182.6"/>
	<g id="XMLID_178_">
		<path id="XMLID_116_" fill="#72757A" d="M204,185.6c3.9,0,3.9-6,0-6C200.1,179.6,200.1,185.6,204,185.6L204,185.6z"/>
	</g>
</g>
<g id="XMLID_1674_">
	<path id="XMLID_174_" fill="#E3E3E3" d="M204,288.8"/>
	<g id="XMLID_167_">
		<path id="XMLID_108_" fill="#72757A" d="M204,291.8c3.9,0,3.9-6,0-6C200.1,285.8,200.1,291.8,204,291.8L204,291.8z"/>
	</g>
</g>
<g id="XMLID_1707_">
	<g id="XMLID_1688_">
		<path id="XMLID_165_" fill="#E3E3E3" d="M76.3,288.3c0-70.5,57.2-127.7,127.8-127.7c70.5,0,127.7,57.2,127.7,127.8"/>
		<g id="XMLID_158_">
			<path id="XMLID_99_" fill="#72757A" d="M79.3,288.3c0.3-51.8,33.1-99.5,82.1-117.2c49-17.8,105-2.6,138.4,37.3
				c18.8,22.4,28.8,50.9,29,80c0,3.9,6,3.9,6,0c-0.3-54.4-34.6-104-85.7-122.8c-51.4-18.9-111-2.7-145.8,39.5
				c-19.3,23.4-29.8,52.9-30,83.2C73.2,292.1,79.2,292.2,79.3,288.3L79.3,288.3z"/>
		</g>
	</g>
	<g id="XMLID_1687_">
		<path id="XMLID_156_" fill="#E3E3E3" d="M93.1,288.3C93.1,226.8,143,177,204.4,177c61.5,0,111.3,49.9,111.3,111.3"/>
		<g id="XMLID_151_">
			<path id="XMLID_91_" fill="#72757A" d="M96.1,288.3c0.3-45.2,28.9-86.7,71.7-101.9c42.5-15.2,90.9-1.9,119.8,32.6
				c16.3,19.4,24.9,44.1,25.1,69.4c0,3.9,6,3.9,6,0c-0.3-47.5-30.1-90.7-74.8-107.3c-44.8-16.6-96.9-2.6-127.3,34.1
				c-17.1,20.6-26.3,46.4-26.5,73.1C90.1,292.2,96.1,292.2,96.1,288.3L96.1,288.3z"/>
		</g>
	</g>
	<g id="XMLID_1686_">
		<line id="XMLID_148_" fill="#E3E3E3" x1="115" y1="288.8" x2="115" y2="224.1"/>
		<g id="XMLID_143_">
			<path id="XMLID_84_" fill="#72757A" d="M118,288.8c0-21.6,0-43.1,0-64.7c0-3.9-6-3.9-6,0c0,21.6,0,43.1,0,64.7
				C112,292.6,118,292.6,118,288.8L118,288.8z"/>
		</g>
	</g>
	<g id="XMLID_1685_">
		<line id="XMLID_140_" fill="#E3E3E3" x1="128.5" y1="288.8" x2="128.5" y2="209.9"/>
		<g id="XMLID_134_">
			<path id="XMLID_77_" fill="#72757A" d="M131.5,288.8c0-26.3,0-52.6,0-78.9c0-3.9-6-3.9-6,0c0,26.3,0,52.6,0,78.9
				C125.5,292.6,131.5,292.7,131.5,288.8L131.5,288.8z"/>
		</g>
	</g>
	<g id="XMLID_1684_">
		<line id="XMLID_132_" fill="#E3E3E3" x1="147.8" y1="288.8" x2="147.8" y2="195.6"/>
		<g id="XMLID_127_">
			<path id="XMLID_69_" fill="#72757A" d="M150.8,288.8c0-27.2,0-54.3,0-81.5c0-3.9,0-7.8,0-11.7c0-3.9-6-3.9-6,0
				c0,27.2,0,54.3,0,81.5c0,3.9,0,7.8,0,11.7C144.8,292.7,150.8,292.7,150.8,288.8L150.8,288.8z"/>
		</g>
	</g>
	<g id="XMLID_1683_">
		<line id="XMLID_125_" fill="#E3E3E3" x1="161.3" y1="288.8" x2="161.3" y2="188.9"/>
		<g id="XMLID_119_">
			<path id="XMLID_67_" fill="#72757A" d="M164.3,288.8c0-29.2,0-58.3,0-87.5c0-4.1,0-8.2,0-12.4c0-3.9-6-3.9-6,0
				c0,29.2,0,58.3,0,87.5c0,4.1,0,8.2,0,12.4C158.3,292.7,164.3,292.7,164.3,288.8L164.3,288.8z"/>
		</g>
	</g>
	<g id="XMLID_1673_">
		<polyline id="XMLID_117_" fill="#E3E3E3" points="194,288.8 194,148.1 180.5,148.1 180.4,288.8 		"/>
		<g id="XMLID_111_">
			<path id="XMLID_38_" fill="#72757A" d="M197,288.8c0-41,0-82,0-123c0-5.9,0-11.8,0-17.7c0-1.6-1.4-3-3-3c-4.5,0-9,0-13.5,0
				c-1.6,0-3,1.4-3,3c0,41,0,82,0,123c0,5.9,0,11.8,0,17.7c0,3.9,6,3.9,6,0c0-41,0-82,0-123c0-5.9,0-11.8,0-17.7c-1,1-2,2-3,3
				c4.5,0,9,0,13.5,0c-1-1-2-2-3-3c0,41,0,82,0,123c0,5.9,0,11.8,0,17.7C191,292.7,197,292.7,197,288.8L197,288.8z"/>
		</g>
	</g>
	<g id="XMLID_1672_">
		<polyline id="XMLID_109_" fill="#E3E3E3" points="227.7,288.8 227.7,148.1 214.2,148.1 214.2,288.8 		"/>
		<g id="XMLID_103_">
			<path id="XMLID_31_" fill="#72757A" d="M230.7,288.8c0-41,0-82,0-123c0-5.9,0-11.8,0-17.7c0-1.6-1.4-3-3-3c-4.5,0-9,0-13.5,0
				c-1.6,0-3,1.4-3,3c0,41,0,82,0,123c0,5.9,0,11.8,0,17.7c0,3.9,6,3.9,6,0c0-41,0-82,0-123c0-5.9,0-11.8,0-17.7c-1,1-2,2-3,3
				c4.5,0,9,0,13.5,0c-1-1-2-2-3-3c0,41,0,82,0,123c0,5.9,0,11.8,0,17.7C224.7,292.7,230.7,292.7,230.7,288.8L230.7,288.8z"/>
		</g>
	</g>
	<g id="XMLID_1640_">
		<line id="XMLID_101_" fill="#E3E3E3" x1="294.1" y1="286.8" x2="294.1" y2="223.2"/>
		<g id="XMLID_95_">
			<path id="XMLID_26_" fill="#72757A" d="M297.1,286.8c0-21.2,0-42.4,0-63.7c0-3.9-6-3.9-6,0c0,21.2,0,42.4,0,63.7
				C291.1,290.7,297.1,290.7,297.1,286.8L297.1,286.8z"/>
		</g>
	</g>
	<g id="XMLID_1639_">
		<line id="XMLID_92_" fill="#E3E3E3" x1="280.6" y1="286.8" x2="280.6" y2="208"/>
		<g id="XMLID_87_">
			<path id="XMLID_24_" fill="#72757A" d="M283.6,286.8c0-26.3,0-52.6,0-78.9c0-3.9-6-3.9-6,0c0,26.3,0,52.6,0,78.9
				C277.6,290.7,283.6,290.7,283.6,286.8L283.6,286.8z"/>
		</g>
	</g>
	<g id="XMLID_1638_">
		<line id="XMLID_85_" fill="#E3E3E3" x1="261.3" y1="286.8" x2="261.3" y2="193.6"/>
		<g id="XMLID_80_">
			<path id="XMLID_23_" fill="#72757A" d="M264.3,286.8c0-27.2,0-54.3,0-81.5c0-3.9,0-7.8,0-11.7c0-3.9-6-3.9-6,0
				c0,27.2,0,54.3,0,81.5c0,3.9,0,7.8,0,11.7C258.3,290.7,264.3,290.7,264.3,286.8L264.3,286.8z"/>
		</g>
	</g>
	<g id="XMLID_1637_">
		<line id="XMLID_78_" fill="#E3E3E3" x1="247.8" y1="286.8" x2="247.8" y2="187"/>
		<g id="XMLID_73_">
			<path id="XMLID_22_" fill="#72757A" d="M250.8,286.8c0-29.2,0-58.3,0-87.5c0-4.1,0-8.2,0-12.4c0-3.9-6-3.9-6,0
				c0,29.2,0,58.3,0,87.5c0,4.1,0,8.2,0,12.4C244.8,290.7,250.8,290.7,250.8,286.8L250.8,286.8z"/>
		</g>
	</g>
</g>
<g id="XMLID_1603_">
	<circle id="XMLID_59_" fill="#E3E3E3" cx="204" cy="214.3" r="26.1"/>
</g>
<g id="XMLID_1671_">
	<g id="XMLID_60_">
		<path id="XMLID_21_" fill="#72757A" d="M227.1,214.3c-0.3,12.6-10.3,23.1-23.1,23.1c-12.6,0-23.1-10.5-23.1-23.1
			c0-12.6,10.5-23.1,23.1-23.1C216.8,191.2,226.7,201.7,227.1,214.3c0.1,3.9,6.1,3.9,6,0c-0.3-12.1-7.5-23-19.1-27.3
			c-11.4-4.2-24.6-0.7-32.4,8.6c-16.9,20.4,1,51.7,27.2,47.4c14.1-2.4,23.9-14.7,24.2-28.7C233.2,210.5,227.2,210.5,227.1,214.3z"/>
	</g>
</g>
<g id="XMLID_1695_">
	<path id="XMLID_1662_" fill="#72757A" stroke="#72757A" stroke-miterlimit="10" d="M135.2,323.5c0.8,0,1.4-0.6,1.4-1.4l0-7.1
		l5.8,7.6c0.4,0.5,0.8,0.9,1.5,0.9h0.1c0.8,0,1.5-0.6,1.5-1.5l0-10.5c0-0.8-0.6-1.4-1.4-1.4c-0.8,0-1.4,0.6-1.4,1.4l0,6.8l-5.6-7.4
		c-0.4-0.5-0.8-0.9-1.5-0.9l-0.3,0c-0.8,0-1.5,0.6-1.5,1.5l0,10.5C133.8,322.8,134.4,323.5,135.2,323.5z"/>
	<path id="XMLID_1659_" fill="#72757A" stroke="#72757A" stroke-miterlimit="10" d="M155.1,323.6c4.1,0,7-3.1,7-6.8v0
		c0-3.8-2.9-6.8-7-6.8c-4.1,0-7,3.1-7,6.8v0C148.1,320.5,151,323.6,155.1,323.6z M151.1,316.7c0-2.3,1.6-4.1,4-4.1
		c2.3,0,4,1.9,4,4.2v0c0,2.3-1.6,4.1-4,4.1C152.8,320.9,151.1,319,151.1,316.7L151.1,316.7z"/>
	<path id="XMLID_1656_" fill="#72757A" stroke="#72757A" stroke-miterlimit="10" d="M166.2,323.4l3.7,0c4.2,0,7-2.9,7-6.6v0
		c0-3.7-2.9-6.6-7-6.6l-3.7,0c-0.8,0-1.5,0.6-1.5,1.5l0,10.3C164.7,322.7,165.4,323.4,166.2,323.4z M167.6,312.8l2.2,0
		c2.4,0,4,1.6,4,4v0c0,2.3-1.6,3.9-4,3.9l-2.2,0L167.6,312.8z"/>
	<path id="XMLID_1655_" fill="#72757A" stroke="#72757A" stroke-miterlimit="10" d="M181,323.4l7.4,0c0.7,0,1.3-0.6,1.3-1.3
		c0-0.7-0.6-1.3-1.3-1.3l-6,0l0-2.8l5,0c0.7,0,1.3-0.6,1.3-1.3c0-0.7-0.6-1.3-1.3-1.3l-5,0l0-2.7l5.9,0c0.7,0,1.3-0.6,1.3-1.3
		c0-0.7-0.6-1.3-1.3-1.3l-7.3,0c-0.8,0-1.5,0.6-1.5,1.5l0,10.3C179.5,322.7,180.1,323.4,181,323.4z"/>
	<path id="XMLID_1654_" fill="#72757A" stroke="#72757A" stroke-miterlimit="10" d="M191.9,322c1.5,1.1,3.2,1.6,5,1.6
		c2.9,0,4.9-1.5,4.9-4.1v0c0-2.3-1.5-3.3-4.2-4c-2.3-0.6-2.8-0.9-2.8-1.7v0c0-0.6,0.6-1.2,1.7-1.2c0.9,0,1.8,0.3,2.8,0.9
		c0.2,0.1,0.5,0.2,0.7,0.2c0.8,0,1.4-0.6,1.4-1.3c0-0.6-0.3-1-0.6-1.2c-1.2-0.8-2.6-1.2-4.2-1.2c-2.7,0-4.6,1.6-4.6,4v0
		c0,2.6,1.7,3.4,4.4,4c2.2,0.6,2.7,0.9,2.7,1.7v0c0,0.8-0.7,1.2-1.9,1.2c-1.3,0-2.4-0.5-3.4-1.2c-0.2-0.1-0.5-0.3-0.8-0.3
		c-0.8,0-1.4,0.6-1.4,1.3C191.3,321.3,191.6,321.7,191.9,322z"/>
	<path id="XMLID_1653_" fill="#72757A" stroke="#72757A" stroke-miterlimit="10" d="M210.4,323.6c2.1,0,3.5-0.6,4.7-1.7
		c0.3-0.2,0.5-0.6,0.5-1c0-0.7-0.6-1.3-1.4-1.3c-0.3,0-0.6,0.1-0.9,0.3c-0.8,0.7-1.6,1-2.9,1c-2.3,0-3.8-1.9-3.8-4.2l0,0
		c0-2.3,1.6-4.1,3.8-4.1c1,0,1.9,0.3,2.7,0.9c0.2,0.1,0.5,0.3,0.9,0.3c0.8,0,1.4-0.6,1.4-1.4c0-0.5-0.3-0.9-0.6-1.2
		c-1.1-0.8-2.4-1.3-4.4-1.3c-4.1,0-6.9,3.1-6.9,6.8v0C203.7,320.6,206.5,323.6,210.4,323.6z"/>
	<path id="XMLID_1652_" fill="#72757A" stroke="#72757A" stroke-miterlimit="10" d="M219.6,323.5c0.8,0,1.5-0.6,1.5-1.5l0-4l5.4,0
		l0,4c0,0.8,0.6,1.5,1.5,1.5c0.8,0,1.5-0.6,1.5-1.5l0-10.5c0-0.8-0.6-1.5-1.5-1.5c-0.8,0-1.5,0.6-1.5,1.5l0,3.9l-5.4,0l0-3.9
		c0-0.8-0.6-1.5-1.5-1.5c-0.8,0-1.5,0.6-1.5,1.5l0,10.5C218.2,322.8,218.8,323.5,219.6,323.5z"/>
	<path id="XMLID_1649_" fill="#72757A" stroke="#72757A" stroke-miterlimit="10" d="M238.9,323.6c4.1,0,7-3.1,7-6.8v0
		c0-3.8-2.9-6.8-7-6.8c-4.1,0-7,3.1-7,6.8v0C231.9,320.6,234.9,323.6,238.9,323.6z M235,316.7c0-2.3,1.6-4.1,4-4.1
		c2.3,0,4,1.9,4,4.2v0c0,2.3-1.6,4.1-4,4.1C236.6,320.9,235,319,235,316.7L235,316.7z"/>
	<path id="XMLID_1646_" fill="#72757A" stroke="#72757A" stroke-miterlimit="10" d="M255,323.6c4.1,0,7-3.1,7-6.8l0,0
		c0-3.8-2.9-6.8-7-6.8c-4.1,0-7,3.1-7,6.8v0C248,320.6,250.9,323.6,255,323.6z M251,316.7c0-2.3,1.6-4.1,4-4.1c2.3,0,4,1.9,4,4.2v0
		c0,2.3-1.6,4.1-4,4.1C252.7,320.9,251,319,251,316.7L251,316.7z"/>
	<path id="XMLID_1645_" fill="#72757A" stroke="#72757A" stroke-miterlimit="10" d="M266.1,323.4l6.8,0c0.7,0,1.3-0.6,1.3-1.3
		c0-0.7-0.6-1.3-1.3-1.3l-5.4,0l0-9.2c0-0.8-0.6-1.5-1.5-1.5c-0.8,0-1.5,0.6-1.5,1.5l0,10.4C264.6,322.7,265.3,323.4,266.1,323.4z"
		/>
</g>
<g id="XMLID_1705_">
	<circle id="XMLID_1644_" fill="#72757A" stroke="#72757A" stroke-miterlimit="10" cx="204.3" cy="197.6" r="2.5"/>
	<circle id="XMLID_1643_" fill="#72757A" stroke="#72757A" stroke-miterlimit="10" cx="204" cy="232.6" r="2.5"/>
	<circle id="XMLID_1642_" fill="#72757A" stroke="#72757A" stroke-miterlimit="10" cx="186.8" cy="214.3" r="2.5"/>
	<circle id="XMLID_1641_" fill="#72757A" stroke="#72757A" stroke-miterlimit="10" cx="221.8" cy="214.3" r="2.5"/>
</g>
<g id="XMLID_1689_">
	<g id="XMLID_1664_">
		<g id="XMLID_196_">
			<path id="XMLID_210_" fill="#72757A" d="M45.1,331.9c0-14.3,0-28.6,0-43c-1,1-2,2-3,3c36.5,0,73,0,109.5,0
				c58.2,0,116.4,0,174.6,0.1c13.4,0,26.7,0,40.1,0c-1-1-2-2-3-3c0,14.3,0,28.6,0,43c0,3.9,6,3.9,6,0c0-14.3,0-28.6,0-43
				c0-1.6-1.4-3-3-3c-36.5,0-73,0-109.5,0c-58.2,0-116.4,0-174.6-0.1c-13.4,0-26.7,0-40.1,0c-1.6,0-3,1.4-3,3c0,14.3,0,28.6,0,43
				C39.1,335.8,45.1,335.8,45.1,331.9L45.1,331.9z"/>
		</g>
	</g>
	<g id="XMLID_1629_">
		<rect id="XMLID_189_" x="33.7" y="281.7" fill="#E3E3E3" width="341" height="16.4"/>
		<g id="XMLID_170_">
			<path id="XMLID_184_" fill="#72757A" d="M374.8,295.2c-38.5,0-77,0-115.5,0c-61.2,0-122.5,0-183.7-0.1c-13.9,0-27.9,0-41.8,0
				c1,1,2,2,3,3c0-5.5,0-10.9,0-16.4c-1,1-2,2-3,3c38.5,0,77,0,115.5,0c61.2,0,122.5,0,183.7,0.1c13.9,0,27.9,0,41.8,0c-1-1-2-2-3-3
				c0,5.5,0,10.9,0,16.4c0,3.9,6,3.9,6,0c0-5.5,0-10.9,0-16.4c0-1.6-1.4-3-3-3c-38.5,0-77,0-115.5,0c-61.2,0-122.5,0-183.7-0.1
				c-13.9,0-27.9,0-41.8,0c-1.6,0-3,1.4-3,3c0,5.5,0,10.9,0,16.4c0,1.6,1.4,3,3,3c38.5,0,77,0,115.5,0c61.2,0,122.5,0,183.7,0.1
				c13.9,0,27.9,0,41.8,0C378.6,301.2,378.6,295.2,374.8,295.2z"/>
		</g>
	</g>
	<g id="XMLID_1621_">
		<rect id="XMLID_168_" x="57.6" y="246.9" fill="#E3E3E3" width="14" height="85.9"/>
		<g id="XMLID_93_">
			<path id="XMLID_163_" fill="#72757A" d="M71.5,329.8c-4.7,0-9.3,0-14,0c1,1,2,2,3,3c0-25.1,0-50.1,0-75.2c0-3.6,0-7.2,0-10.7
				c-1,1-2,2-3,3c4.7,0,9.3,0,14,0c-1-1-2-2-3-3c0,25.1,0,50.1,0,75.2c0,3.6,0,7.2,0,10.7c0,3.9,6,3.9,6,0c0-25.1,0-50.1,0-75.2
				c0-3.6,0-7.2,0-10.7c0-1.6-1.4-3-3-3c-4.7,0-9.3,0-14,0c-1.6,0-3,1.4-3,3c0,25.1,0,50.1,0,75.2c0,3.6,0,7.2,0,10.7
				c0,1.6,1.4,3,3,3c4.7,0,9.3,0,14,0C75.4,335.8,75.4,329.8,71.5,329.8z"/>
		</g>
	</g>
	<g id="XMLID_1613_">
		<rect id="XMLID_161_" x="337" y="245.5" fill="#E3E3E3" width="14" height="85.9"/>
		<g id="XMLID_71_">
			<path id="XMLID_121_" fill="#72757A" d="M350.9,328.4c-4.7,0-9.3,0-14,0c1,1,2,2,3,3c0-25.1,0-50.1,0-75.2c0-3.6,0-7.2,0-10.7
				c-1,1-2,2-3,3c4.7,0,9.3,0,14,0c-1-1-2-2-3-3c0,25.1,0,50.1,0,75.2c0,3.6,0,7.2,0,10.7c0,3.9,6,3.9,6,0c0-25.1,0-50.1,0-75.2
				c0-3.6,0-7.2,0-10.7c0-1.6-1.4-3-3-3c-4.7,0-9.3,0-14,0c-1.6,0-3,1.4-3,3c0,25.1,0,50.1,0,75.2c0,3.6,0,7.2,0,10.7
				c0,1.6,1.4,3,3,3c4.7,0,9.3,0,14,0C354.8,334.4,354.8,328.4,350.9,328.4z"/>
		</g>
	</g>
	<g id="XMLID_1605_">
		<rect id="XMLID_70_" x="87.2" y="272.4" fill="#E3E3E3" width="13" height="59.4"/>
		<g id="XMLID_49_">
			<path id="XMLID_65_" fill="#72757A" d="M100.1,328.8c-4.3,0-8.7,0-13,0c1,1,2,2,3,3c0-19.8,0-39.6,0-59.4c-1,1-2,2-3,3
				c4.3,0,8.7,0,13,0c-1-1-2-2-3-3c0,19.8,0,39.6,0,59.4c0,3.9,6,3.9,6,0c0-19.8,0-39.6,0-59.4c0-1.6-1.4-3-3-3c-4.3,0-8.7,0-13,0
				c-1.6,0-3,1.4-3,3c0,19.8,0,39.6,0,59.4c0,1.6,1.4,3,3,3c4.3,0,8.7,0,13,0C104,334.8,104,328.8,100.1,328.8z"/>
		</g>
	</g>
	<g id="XMLID_1597_">
		<rect id="XMLID_47_" x="308.7" y="272.5" fill="#E3E3E3" width="13" height="59.4"/>
		<g id="XMLID_42_">
			<path id="XMLID_46_" fill="#72757A" d="M321.7,328.9c-4.3,0-8.7,0-13,0c1,1,2,2,3,3c0-19.8,0-39.6,0-59.4c-1,1-2,2-3,3
				c4.3,0,8.7,0,13,0c-1-1-2-2-3-3c0,19.8,0,39.6,0,59.4c0,3.9,6,3.9,6,0c0-19.8,0-39.6,0-59.4c0-1.6-1.4-3-3-3c-4.3,0-8.7,0-13,0
				c-1.6,0-3,1.4-3,3c0,19.8,0,39.6,0,59.4c0,1.6,1.4,3,3,3c4.3,0,8.7,0,13,0C325.6,334.9,325.6,328.9,321.7,328.9z"/>
		</g>
	</g>
	<g id="XMLID_1596_">
		<g id="XMLID_40_">
			<path id="XMLID_20_" fill="#72757A" d="M368.8,280.7c0-18.6,0-37.3,0-55.9c-1,1-2,2-3,3c9.7,0,19.3,0,29,0c3.9,0,3.9-6,0-6
				c-9.7,0-19.3,0-29,0c-1.6,0-3,1.4-3,3c0,18.6,0,37.3,0,55.9C362.8,284.6,368.8,284.6,368.8,280.7L368.8,280.7z"/>
		</g>
	</g>
	<g id="XMLID_1595_">
		<g id="XMLID_33_">
			<path id="XMLID_19_" fill="#72757A" d="M45.2,280.6c0-18.6,0-37.3,0-55.9c0-1.6-1.4-3-3-3c-9.7,0-19.3,0-29,0c-3.9,0-3.9,6,0,6
				c9.7,0,19.3,0,29,0c-1-1-2-2-3-3c0,18.6,0,37.3,0,55.9C39.2,284.5,45.2,284.5,45.2,280.6L45.2,280.6z"/>
		</g>
	</g>
</g>
<g id="XMLID_1724_">
	<path id="XMLID_1663_" fill="#72757A" stroke="#72757A" stroke-miterlimit="10" d="M281.3,86.3l-75.8-43.8c0,0,0,0,0,0
		c-0.1-0.1-0.2-0.1-0.3-0.1c0,0,0,0,0,0c0,0,0,0,0,0c0,0-0.1,0-0.1,0c0,0-0.1,0-0.1,0c-0.1,0-0.2,0-0.3,0c0,0,0,0-0.1,0
		c0,0-0.1,0-0.1,0c-0.1,0-0.3,0-0.4,0c0,0,0,0,0,0c0,0,0,0,0,0c0,0,0,0,0,0c-0.1,0-0.2,0.1-0.3,0.1c0,0,0,0,0,0l-74.6,43
		c-0.9,0.5-1.2,1.6-0.7,2.5c0.5,0.9,1.6,1.2,2.5,0.7l66.3-38.2L169,86.5c-0.6,0.8-0.5,2,0.3,2.6c0.8,0.6,2,0.5,2.6-0.3l30.8-39.3
		l0,38.4c0,1,0.8,1.9,1.9,1.9c1,0,1.9-0.8,1.9-1.9l0-38.4l30.8,39.3c0.4,0.5,0.9,0.7,1.5,0.7c0.4,0,0.8-0.1,1.1-0.4
		c0.8-0.6,0.9-1.8,0.3-2.6l-28.2-36l67.5,39c0.3,0.2,0.6,0.2,0.9,0.2c0.6,0,1.3-0.3,1.6-0.9C282.5,88,282.1,86.8,281.3,86.3z"/>
	<path id="XMLID_1594_" fill="#72757A" d="M280.6,385.2c-0.5-0.9-1.6-1.2-2.5-0.7l-66.3,38.3l28.2-35.9c0.6-0.8,0.5-2-0.3-2.6
		c-0.8-0.6-2-0.5-2.6,0.3l-30.8,39.3v-38.4c0-1-0.8-1.9-1.9-1.9c-1,0-1.9,0.8-1.9,1.9v38.4l-30.8-39.3c-0.6-0.8-1.8-0.9-2.6-0.3
		c-0.8,0.6-0.9,1.8-0.3,2.6l28.2,35.9l-67.5-39c-0.9-0.5-2-0.2-2.5,0.7c-0.5,0.9-0.2,2,0.7,2.5l75.8,43.8c0,0,0,0,0.1,0
		c0.1,0,0.1,0.1,0.2,0.1c0,0,0,0,0.1,0c0,0,0,0,0.1,0c0,0,0.1,0,0.1,0c0.1,0,0.3,0.1,0.4,0.1l0,0l0,0l0,0c0,0,0,0,0,0
		c0.2,0,0.3,0,0.4-0.1c0,0,0.1,0,0.1,0c0,0,0.1,0,0.1,0c0.1,0,0.1-0.1,0.2-0.1c0,0,0,0,0.1,0l74.6-43
		C280.8,387.2,281.2,386.1,280.6,385.2z"/>
	<circle id="XMLID_1593_" fill="#72757A" cx="285.6" cy="381.7" r="2.3"/>
	<circle id="XMLID_1588_" fill="#72757A" cx="122.4" cy="381.7" r="2.3"/>
</g>
<g id="XMLID_1709_">
	<path id="XMLID_1582_" fill="#72757A" stroke="#72757A" stroke-miterlimit="10" d="M157,374L157,374c-1.6-2.8-0.8-6.2,2.1-8
		c1.5-0.8,2.7-1,3.8-0.9c0.3,0,0.7,0.2,0.9,0.6c0.3,0.6,0.1,1.3-0.5,1.6c-0.3,0.2-0.5,0.2-0.8,0.2c-0.9-0.1-1.6,0-2.4,0.5
		c-1.6,0.9-2,3-1.1,4.6l0,0c1,1.7,2.9,2.4,4.6,1.4c0.9-0.5,1.3-1.1,1.7-2c0.1-0.2,0.3-0.5,0.5-0.6c0.5-0.3,1.3-0.1,1.6,0.4
		c0.2,0.3,0.2,0.7,0.1,1c-0.4,1.3-1.2,2.3-2.7,3.2C162,377.8,158.6,376.8,157,374z"/>
	<path id="XMLID_1556_" fill="#72757A" stroke="#72757A" stroke-miterlimit="10" d="M202.7,370.9l-3.6-8.7c-0.1-0.2-0.1-0.4-0.1-0.6
		c0-0.7,0.5-1.2,1.2-1.2c0.6,0,1.1,0.4,1.2,0.9l2.8,7.2l2.8-7.3c0.2-0.4,0.6-0.8,1.2-0.8c0.7,0,1.2,0.5,1.2,1.2
		c0,0.2-0.1,0.4-0.1,0.5l-3.7,8.8c-0.3,0.6-0.7,1-1.4,1h-0.2C203.4,371.8,203,371.5,202.7,370.9z"/>
	<path id="XMLID_1970_" fill="#72757A" stroke="#72757A" stroke-miterlimit="10" d="M241,370.2L241,370.2c1.6-2.8,5.1-3.8,8-2.1
		c1.5,0.8,2.2,1.7,2.8,2.9c0.1,0.3,0.2,0.7-0.1,1.1c-0.3,0.6-1.1,0.8-1.7,0.4c-0.3-0.2-0.4-0.4-0.5-0.6c-0.3-0.8-0.8-1.4-1.7-1.9
		c-1.6-0.9-3.6-0.2-4.5,1.4l0,0c-1,1.8-0.6,3.8,1.2,4.8c0.8,0.4,1.6,0.7,2.3,0.6l0.8-1.4l-1.4-0.8c-0.5-0.3-0.7-0.9-0.4-1.4
		c0.3-0.5,1-0.7,1.5-0.4l2.4,1.4c0.6,0.3,0.8,1.1,0.5,1.7l-1.4,2.4c-0.4,0.6-0.8,0.9-1.5,0.9c-1.1,0-2.5-0.2-4-1
		C240.2,376.4,239.3,373.1,241,370.2z"/>
</g>
</svg>
